<svg height="511pt" viewBox="0 -27 511.99972 511" width="511pt" xmlns="http://www.w3.org/2000/svg"><path d="m203.59375 322.585938h297.386719c3.164062 0 4.660156-3.847657 2.371093-6.035157-15.714843-15.019531-25.507812-36.179687-25.507812-59.632812v-243.980469c0-2.703125-2.191406-4.898438-4.898438-4.898438h-321.578124c-2.707032 0-4.898438 2.195313-4.898438 4.898438v243.980469c0 11.898437 2.519531 23.203125 7.054688 33.417969 8.753906 19.714843 28.5 32.25 50.070312 32.25zm0 0" fill="#ff9ec9"/><path d="m503.351562 316.550781c-15.714843-15.019531-25.507812-36.179687-25.507812-59.632812v-243.980469c0-2.703125-2.195312-4.898438-4.898438-4.898438h-52.285156c2.707032 0 4.898438 2.195313 4.898438 4.898438v243.980469c0 23.453125 9.792968 44.613281 25.507812 59.632812 2.289063 2.1875.792969 6.035157-2.371094 6.035157h52.285157c3.164062 0 4.660156-3.847657 2.371093-6.035157zm0 0" fill="#ff88b9"/><path d="m402.933594 172.480469c-9.746094 0-14.957032-3.347657-19.144532-6.039063-3.417968-2.191406-5.671874-3.644531-10.996093-3.644531-5.320313 0-7.578125 1.449219-10.992188 3.644531-4.1875 2.691406-9.398437 6.039063-19.148437 6.039063-9.746094 0-14.957032-3.347657-19.144532-6.039063-3.414062-2.191406-5.671874-3.644531-10.992187-3.644531-4.164063 0-7.542969-3.375-7.542969-7.539063 0-4.164062 3.378906-7.542968 7.542969-7.542968 9.746094 0 14.957031 3.347656 19.144531 6.039062 3.414063 2.191406 5.671875 3.644532 10.992188 3.644532 5.324218 0 7.578125-1.449219 10.996094-3.644532 4.1875-2.691406 9.398437-6.039062 19.144531-6.039062 9.75 0 14.960937 3.347656 19.148437 6.039062 3.414063 2.195313 5.671875 3.644532 10.992188 3.644532 5.324218 0 7.578125-1.449219 10.996094-3.644532 4.1875-2.691406 9.394531-6.039062 19.144531-6.039062 9.746093 0 14.957031 3.347656 19.140625 6.035156 3.503906 2.25 4.519531 6.917969 2.269531 10.421875s-6.917969 4.519531-10.421875 2.269531c-3.414062-2.195312-5.667969-3.644531-10.988281-3.644531-5.320313 0-7.578125 1.449219-10.996094 3.644531-4.183594 2.691406-9.394531 6.039063-19.144531 6.039063zm0 0" fill="#dd5298"/><path d="m402.933594 237.777344c-9.746094 0-14.957032-3.347656-19.144532-6.039063-3.417968-2.191406-5.671874-3.640625-10.996093-3.640625-5.320313 0-7.578125 1.445313-10.992188 3.640625-4.1875 2.691407-9.398437 6.039063-19.148437 6.039063-9.746094 0-14.957032-3.347656-19.144532-6.039063-3.414062-2.191406-5.671874-3.640625-10.992187-3.640625-4.164063 0-7.542969-3.378906-7.542969-7.542968 0-4.164063 3.378906-7.539063 7.542969-7.539063 9.746094 0 14.957031 3.34375 19.144531 6.035156 3.414063 2.195313 5.671875 3.644531 10.992188 3.644531 5.324218 0 7.578125-1.449218 10.996094-3.644531 4.1875-2.6875 9.398437-6.035156 19.144531-6.035156 9.75 0 14.960937 3.34375 19.148437 6.035156 3.414063 2.195313 5.671875 3.644531 10.992188 3.644531 4.164062 0 7.542968 3.375 7.542968 7.539063-.003906 4.167969-3.378906 7.542969-7.542968 7.542969zm0 0" fill="#dd5298"/><path d="m64.664062 449.953125h297.386719c3.164063 0 4.660157-3.847656 2.371094-6.035156-15.714844-15.019531-25.507813-36.179688-25.507813-59.632813v-243.980468c0-2.703126-2.191406-4.898438-4.898437-4.898438h-321.578125c-2.703125 0-4.898438 2.195312-4.898438 4.898438v243.980468c0 11.898438 2.519532 23.203125 7.054688 33.417969 8.753906 19.714844 28.5 32.25 50.070312 32.25zm0 0" fill="#ffc50d"/><path d="m364.421875 443.917969c-15.714844-15.019531-25.507813-36.179688-25.507813-59.632813v-243.980468c0-2.703126-2.191406-4.898438-4.898437-4.898438h-52.28125c2.703125 0 4.898437 2.195312 4.898437 4.898438v243.980468c0 23.453125 9.792969 44.613282 25.507813 59.632813 2.285156 2.1875.792969 6.035156-2.375 6.035156h52.285156c3.164063 0 4.660157-3.847656 2.371094-6.035156zm0 0" fill="#ffa300"/><path d="m355.40625 111.050781c-9.746094 0-14.957031-3.347656-19.144531-6.035156-3.414063-2.195313-5.671875-3.644531-10.992188-3.644531-5.324219 0-7.578125 1.449218-10.996093 3.644531-4.183594 2.6875-9.394532 6.035156-19.144532 6.035156-9.746094 0-14.957031-3.347656-19.144531-6.035156-3.417969-2.195313-5.671875-3.644531-10.996094-3.644531s-7.578125 1.449218-10.996093 3.644531c-4.183594 2.6875-9.394532 6.035156-19.144532 6.035156-9.746094 0-14.957031-3.347656-19.144531-6.035156-3.414063-2.195313-5.671875-3.644531-10.992187-3.644531-4.164063 0-7.542969-3.378906-7.542969-7.542969s3.378906-7.539063 7.542969-7.539063c9.746093 0 14.957031 3.347657 19.144531 6.035157 3.414062 2.195312 5.671875 3.644531 10.992187 3.644531 5.324219 0 7.578125-1.449219 10.996094-3.644531 4.1875-2.6875 9.394531-6.035157 19.144531-6.035157s14.960938 3.347657 19.148438 6.035157c3.414062 2.195312 5.671875 3.644531 10.992187 3.644531 5.324219 0 7.578125-1.449219 10.996094-3.644531 4.1875-2.6875 9.394531-6.035157 19.144531-6.035157 9.746094 0 14.957031 3.347657 19.144531 6.035157 3.414063 2.195312 5.671876 3.644531 10.992188 3.644531s7.578125-1.449219 10.992188-3.644531c4.1875-2.6875 9.398437-6.035157 19.148437-6.035157 4.164063 0 7.539063 3.375 7.539063 7.539063s-3.375 7.542969-7.539063 7.542969c-5.324219 0-7.578125 1.449218-10.996094 3.644531-4.183593 2.6875-9.394531 6.035156-19.144531 6.035156zm0 0" fill="#dd5298"/><g fill="#ff8b00"><path d="m181.863281 249.890625c-9.75 0-14.960937-3.347656-19.148437-6.039063-3.414063-2.195312-5.671875-3.644531-10.992188-3.644531-5.324218 0-7.582031 1.449219-10.996094 3.644531-4.1875 2.6875-9.398437 6.039063-19.144531 6.039063-9.75 0-14.960937-3.347656-19.144531-6.039063-3.417969-2.195312-5.671875-3.644531-10.996094-3.644531-4.164062 0-7.539062-3.375-7.539062-7.539062 0-4.167969 3.375-7.542969 7.539062-7.542969 9.75 0 14.960938 3.347656 19.144532 6.039062 3.417968 2.191407 5.671874 3.644532 10.996093 3.644532 5.320313 0 7.578125-1.449219 10.992188-3.644532 4.1875-2.691406 9.398437-6.039062 19.148437-6.039062 9.746094 0 14.957032 3.347656 19.144532 6.039062 3.414062 2.191407 5.671874 3.644532 10.996093 3.644532 5.320313 0 7.578125-1.449219 10.992188-3.644532 4.1875-2.691406 9.398437-6.039062 19.144531-6.039062 9.75 0 14.960938 3.347656 19.144531 6.035156 3.503907 2.253906 4.519531 6.917969 2.265625 10.421875-2.25 3.503907-6.917968 4.519531-10.421875 2.269531-3.410156-2.195312-5.664062-3.644531-10.988281-3.644531-5.320312 0-7.578125 1.449219-10.992188 3.644531-4.1875 2.691407-9.398437 6.039063-19.144531 6.039063zm0 0"/><path d="m242.140625 386.191406c-9.75 0-14.960937-3.347656-19.144531-6.039062-3.417969-2.191406-5.671875-3.640625-10.992188-3.640625-5.324218 0-7.578125 1.445312-10.996094 3.640625-4.1875 2.691406-9.398437 6.039062-19.144531 6.039062-9.75 0-14.960937-3.347656-19.144531-6.039062-3.417969-2.191406-5.675781-3.640625-10.996094-3.640625-5.324218 0-7.578125 1.445312-10.996094 3.640625-4.1875 2.691406-9.398437 6.039062-19.144531 6.039062-9.746093 0-14.960937-3.347656-19.144531-6.039062-3.417969-2.191406-5.671875-3.640625-10.996094-3.640625-4.164062 0-7.539062-3.378907-7.539062-7.542969s3.375-7.539062 7.539062-7.539062c9.75 0 14.960938 3.34375 19.148438 6.035156 3.414062 2.195312 5.671875 3.644531 10.992187 3.644531 5.320313 0 7.578125-1.449219 10.992188-3.644531 4.1875-2.6875 9.398437-6.035156 19.148437-6.035156s14.957032 3.34375 19.144532 6.035156c3.417968 2.195312 5.671874 3.644531 10.996093 3.644531 5.320313 0 7.578125-1.449219 10.992188-3.644531 4.1875-2.6875 9.398437-6.035156 19.148437-6.035156 9.746094 0 14.957032 3.34375 19.140625 6.035156 3.417969 2.195312 5.671875 3.644531 10.996094 3.644531 5.320313 0 7.578125-1.449219 10.992187-3.644531 4.1875-2.6875 9.398438-6.035156 19.144532-6.035156 4.167968 0 7.542968 3.375 7.542968 7.539062s-3.375 7.542969-7.542968 7.542969c-5.320313 0-7.578125 1.445312-10.992188 3.640625-4.1875 2.691406-9.398437 6.039062-19.144531 6.039062zm0 0"/><path d="m281.910156 317.859375c-9.746094 0-14.957031-3.34375-19.144531-6.035156-3.414063-2.195313-5.671875-3.644531-10.996094-3.644531-5.320312 0-7.578125 1.449218-10.992187 3.644531-4.1875 2.6875-9.398438 6.035156-19.144532 6.035156-9.75 0-14.957031-3.34375-19.144531-6.035156-3.417969-2.195313-5.671875-3.644531-10.996093-3.644531-5.320313 0-7.578126 1.449218-10.992188 3.644531-4.1875 2.6875-9.398438 6.035156-19.144531 6.035156-9.75 0-14.960938-3.34375-19.148438-6.035156-3.414062-2.195313-5.671875-3.644531-10.992187-3.644531-5.324219 0-7.578125 1.449218-10.996094 3.644531-4.1875 2.6875-9.398438 6.035156-19.144531 6.035156-4.683594 0-8.800781-.78125-12.585938-2.390625-3.832031-1.632812-5.617187-6.058594-3.984375-9.890625 1.632813-3.832031 6.0625-5.613281 9.890625-3.984375 1.199219.507812 3.195313 1.1875 6.679688 1.1875 5.320312 0 7.578125-1.449219 10.992187-3.644531 4.1875-2.691407 9.398438-6.039063 19.148438-6.039063 9.746094 0 14.957031 3.347656 19.144531 6.039063 3.414063 2.191406 5.671875 3.644531 10.996094 3.644531 5.320312 0 7.578125-1.449219 10.992187-3.644531 4.1875-2.691407 9.398438-6.039063 19.144532-6.039063 9.75 0 14.960937 3.347656 19.144531 6.039063 3.417969 2.191406 5.671875 3.644531 10.992187 3.644531 5.324219 0 7.582032-1.449219 10.996094-3.644531 4.1875-2.691407 9.398438-6.039063 19.144531-6.039063 9.75 0 14.960938 3.347656 19.144531 6.039063 3.417969 2.191406 5.675782 3.644531 10.996094 3.644531 5.324219 0 7.578125-1.449219 10.996094-3.644531 4.1875-2.691407 9.398438-6.039063 19.148438-6.039063 4.164062 0 7.539062 3.378906 7.539062 7.542969s-3.375 7.539063-7.539062 7.539063c-5.324219 0-7.582032 1.453124-11 3.644531-4.183594 2.691406-9.394532 6.035156-19.144532 6.035156zm0 0"/><path d="m42.617188 230.878906h-5.214844c-2.410156 0-3.570313-1.203125-3.570313-3.425781 0-2.460937.820313-3.136719 4.683594-3.8125 2.945313-.53125 4.4375-1.882813 5.695313-3.621094 1.542968-2.125 2.507812-3.28125 4.4375-3.28125 2.464843 0 3.910156 1.0625 3.910156 3.378907v26.640624c0 3.378907-2.074219 4.925782-4.96875 4.925782-2.898438 0-4.972656-1.546875-4.972656-4.925782zm0 0"/><path d="m58.15625 310.914062c2.898438 0 4.105469 1.496094 4.105469 4.054688s-1.207031 4.054688-4.105469 4.054688h-19.691406c-2.558594 0-4.101563-1.929688-4.101563-4.007813 0-2.992187.726563-4.535156 9.605469-10.714844l4.585938-3.1875c2.363281-1.640625 3.234374-2.992187 3.234374-4.96875 0-2.367187-1.59375-3.910156-4.199218-3.910156-5.503906 0-2.65625 6.710937-8.109375 6.710937-3.476563 0-4.730469-1.929687-4.730469-4.683593 0-4.632813 4.535156-9.558594 13.128906-9.558594 10.28125 0 13.851563 5.601563 13.851563 10.957031 0 4.054688-2.027344 6.949219-6.324219 9.652344l-8.734375 5.503906v.097656zm0 0"/><path d="m48.410156 372.800781c-3.234375-.242187-4.34375-1.402343-4.34375-3.042969 0-2.558593 1.6875-3.328124 3.957032-3.328124 1.640624 0 3.328124-.964844 3.328124-3.234376 0-2.460937-1.976562-3.28125-4.488281-3.28125-1.832031 0-2.847656.578126-4.246093 2.75-1.015626 1.542969-1.882813 1.976563-3.378907 1.976563-2.945312 0-4.25-2.265625-4.25-4.292969 0-4.152344 4.683594-7.675781 13.082031-7.675781 7.433594 0 12.644532 3.667969 12.644532 9.507813 0 3.234374-1.449219 5.648437-4.101563 6.5625v.097656c3.234375 1.015625 4.921875 3.8125 4.921875 7.191406 0 4.394531-2.269531 11.585938-14.625 11.585938-7.722656 0-12.644531-4.199219-12.644531-8.449219 0-2.703125 1.640625-4.632813 4.441406-4.632813 5.210938 0 2.605469 5.839844 7.914063 5.839844 3.378906 0 4.972656-1.207031 4.972656-4.4375 0-2.414062-1.207031-2.992188-3.183594-3.136719zm0 0"/></g><path d="m508.5625 311.097656c-14.949219-14.28125-23.179688-33.523437-23.179688-54.179687v-243.980469c0-6.859375-5.578124-12.4375-12.4375-12.4375h-321.578124c-6.859376 0-12.4375 5.578125-12.4375 12.4375v16.980469c0 4.167969 3.375 7.542969 7.539062 7.542969 4.167969 0 7.542969-3.375 7.542969-7.542969v-14.335938h316.292969v241.335938c0 21.601562 7.488281 41.910156 21.269531 58.125h-145.117188v-77.453125c7.363281-.734375 11.738281-3.53125 15.34375-5.847656 3.414063-2.195313 5.671875-3.644532 10.992188-3.644532 5.324219 0 7.578125 1.449219 10.996093 3.644532 4.1875 2.6875 9.398438 6.035156 19.144532 6.035156 4.164062 0 7.542968-3.375 7.542968-7.539063 0-4.167969-3.378906-7.542969-7.542968-7.542969-5.320313 0-7.578125-1.449218-10.992188-3.644531-4.1875-2.6875-9.398437-6.035156-19.148437-6.035156-9.746094 0-14.957031 3.347656-19.144531 6.035156-2.46875 1.585938-4.339844 2.78125-7.191407 3.320313v-50.082032c7.367188-.730468 11.738281-3.53125 15.34375-5.847656 3.414063-2.191406 5.671875-3.644531 10.996094-3.644531 5.320313 0 7.578125 1.449219 10.992187 3.644531 4.1875 2.691406 9.398438 6.039063 19.144532 6.039063 9.75 0 14.960937-3.347657 19.148437-6.039063 3.414063-2.195312 5.671875-3.644531 10.992188-3.644531 5.320312 0 7.578125 1.449219 10.992187 3.644531 3.5 2.25 8.167969 1.234375 10.417969-2.269531s1.234375-8.167969-2.265625-10.421875c-4.1875-2.6875-9.398438-6.035156-19.144531-6.035156-9.746094 0-14.957031 3.347656-19.144531 6.039062-3.414063 2.191406-5.671876 3.644532-10.996094 3.644532-5.320313 0-7.578125-1.449219-10.992188-3.644532-4.1875-2.691406-9.398437-6.039062-19.144531-6.039062-9.75 0-14.960937 3.347656-19.148437 6.039062-2.46875 1.585938-4.335938 2.78125-7.191407 3.320313v-16.769531c0-6.859376-5.578125-12.4375-12.4375-12.4375h-180.007812v-64.574219c0-4.164063-3.378907-7.542969-7.542969-7.542969s-7.539062 3.378906-7.539062 7.542969v64.574219h-126.492188c-6.859375 0-12.4375 5.578124-12.4375 12.4375v243.980468c0 12.695313 2.59375 24.964844 7.703125 36.476563 9.90625 22.3125 32.265625 36.730469 56.960937 36.730469h173.457032c4.164062 0 7.539062-3.375 7.539062-7.539063 0-4.167969-3.375-7.542969-7.539062-7.542969h-173.457032c-18.738281 0-35.6875-10.898437-43.175781-27.765625-4.253906-9.574219-6.40625-19.789062-6.40625-30.359375v-241.335937h316.289063v179.617187.015625.019531 61.683594c0 21.597656 7.492187 41.910156 21.273437 58.125h-80.367187c-4.164063 0-7.539063 3.375-7.539063 7.539063 0 4.167969 3.375 7.542969 7.539063 7.542969h89.773437c4.523438 0 8.535157-2.710938 10.21875-6.902344 1.691407-4.21875.65625-8.976563-2.636719-12.125-14.949218-14.285156-23.179687-33.527344-23.179687-54.179688v-54.160156h154.527344c4.527343 0 8.535156-2.710938 10.21875-6.90625 1.691406-4.214844.65625-8.972656-2.636719-12.121094zm0 0"/><path d="m91.441406 240.207031c5.320313 0 7.578125 1.449219 10.992188 3.644531 4.1875 2.691407 9.398437 6.039063 19.144531 6.039063 9.75 0 14.960937-3.347656 19.144531-6.039063 3.417969-2.191406 5.675782-3.644531 10.996094-3.644531s7.578125 1.449219 10.996094 3.644531c4.1875 2.691407 9.394531 6.039063 19.144531 6.039063s14.960937-3.347656 19.144531-6.039063c3.417969-2.191406 5.671875-3.644531 10.996094-3.644531 5.320312 0 7.574219 1.449219 10.988281 3.644531 3.5 2.25 8.167969 1.234376 10.421875-2.269531 2.25-3.5 1.234375-8.167969-2.269531-10.417969-4.183594-2.691406-9.390625-6.039062-19.140625-6.039062s-14.960938 3.347656-19.144531 6.039062c-3.417969 2.195313-5.671875 3.644532-10.996094 3.644532-5.320313 0-7.578125-1.449219-10.996094-3.644532-4.1875-2.6875-9.394531-6.039062-19.144531-6.039062s-14.960938 3.347656-19.144531 6.039062c-3.417969 2.195313-5.671875 3.644532-10.996094 3.644532-5.320313 0-7.578125-1.449219-10.992187-3.644532-4.1875-2.6875-9.398438-6.039062-19.144532-6.039062-4.167968 0-7.542968 3.378906-7.542968 7.542969 0 4.164062 3.375 7.539062 7.542968 7.539062zm0 0"/><path d="m91.441406 376.511719c5.320313 0 7.578125 1.449219 10.992188 3.644531 4.1875 2.6875 9.398437 6.035156 19.144531 6.035156 9.75 0 14.960937-3.347656 19.144531-6.035156 3.417969-2.195312 5.671875-3.644531 10.996094-3.644531 5.320312 0 7.578125 1.449219 10.996094 3.644531 4.1875 2.6875 9.394531 6.035156 19.144531 6.035156s14.960937-3.347656 19.144531-6.035156c3.417969-2.195312 5.671875-3.644531 10.996094-3.644531 5.320312 0 7.574219 1.449219 10.992188 3.644531 4.1875 2.6875 9.394531 6.035156 19.144531 6.035156 9.746093 0 14.957031-3.347656 19.144531-6.035156 3.414062-2.195312 5.671875-3.644531 10.996094-3.644531 4.164062 0 7.539062-3.375 7.539062-7.542969 0-4.164062-3.375-7.539062-7.539062-7.539062-9.75 0-14.960938 3.347656-19.148438 6.035156-3.414062 2.195312-5.671875 3.644531-10.992187 3.644531-5.320313 0-7.578125-1.449219-10.992188-3.644531-4.1875-2.6875-9.398437-6.035156-19.144531-6.035156-9.75 0-14.960938 3.347656-19.144531 6.035156-3.417969 2.195312-5.671875 3.644531-10.996094 3.644531-5.320313 0-7.578125-1.449219-10.996094-3.644531-4.1875-2.6875-9.394531-6.035156-19.144531-6.035156s-14.960938 3.347656-19.144531 6.035156c-3.417969 2.195312-5.671875 3.644531-10.996094 3.644531-5.320313 0-7.578125-1.449219-10.992187-3.644531-4.1875-2.6875-9.398438-6.035156-19.144532-6.035156-4.167968 0-7.542968 3.375-7.542968 7.539062 0 4.167969 3.375 7.542969 7.542968 7.542969zm0 0"/><path d="m215.703125 105.015625c4.1875 2.6875 9.398437 6.035156 19.144531 6.035156 9.75 0 14.960938-3.347656 19.144532-6.035156 3.417968-2.195313 5.671874-3.644531 10.996093-3.644531 5.320313 0 7.578125 1.449218 10.996094 3.644531 4.1875 2.6875 9.394531 6.035156 19.144531 6.035156s14.960938-3.347656 19.144532-6.035156c3.417968-2.195313 5.671874-3.644531 10.996093-3.644531 5.320313 0 7.574219 1.449218 10.992188 3.644531 4.1875 2.6875 9.394531 6.035156 19.144531 6.035156 9.746094 0 14.957031-3.347656 19.144531-6.035156 3.417969-2.195313 5.671875-3.644531 10.996094-3.644531 4.164063 0 7.539063-3.378906 7.539063-7.542969s-3.375-7.539063-7.539063-7.539063c-9.75 0-14.960937 3.347657-19.148437 6.035157-3.414063 2.195312-5.671876 3.644531-10.992188 3.644531s-7.578125-1.449219-10.992188-3.644531c-4.1875-2.6875-9.398437-6.035157-19.144531-6.035157-9.75 0-14.960937 3.347657-19.144531 6.035157-3.417969 2.195312-5.671875 3.644531-10.996094 3.644531-5.320312 0-7.578125-1.449219-10.992187-3.644531-4.191407-2.6875-9.398438-6.035157-19.148438-6.035157s-14.960937 3.347657-19.144531 6.035157c-3.417969 2.195312-5.671875 3.644531-10.996094 3.644531-5.320312 0-7.578125-1.449219-10.992187-3.644531-4.1875-2.6875-9.398438-6.035157-19.144531-6.035157-4.164063 0-7.542969 3.375-7.542969 7.539063s3.378906 7.542969 7.542969 7.542969c5.320312 0 7.574218 1.449218 10.992187 3.644531zm0 0"/><path d="m88.488281 315.46875c3.785157 1.609375 7.898438 2.390625 12.585938 2.390625 9.746093 0 14.957031-3.34375 19.144531-6.035156 3.414062-2.195313 5.671875-3.644531 10.996094-3.644531 5.320312 0 7.574218 1.449218 10.992187 3.644531 4.1875 2.6875 9.398438 6.035156 19.144531 6.035156 9.75 0 14.960938-3.34375 19.148438-6.035156 3.414062-2.195313 5.671875-3.644531 10.992188-3.644531 5.320312 0 7.578124 1.449218 10.992187 3.644531 4.1875 2.6875 9.398437 6.035156 19.144531 6.035156 9.75 0 14.960938-3.34375 19.148438-6.035156 3.414062-2.195313 5.671875-3.644531 10.992187-3.644531 5.324219 0 7.578125 1.449218 10.996094 3.644531 4.1875 2.6875 9.394531 6.035156 19.144531 6.035156s14.960938-3.34375 19.144532-6.035156c3.417968-2.191407 5.675781-3.644531 11-3.644531 4.164062 0 7.539062-3.375 7.539062-7.539063 0-4.167969-3.375-7.542969-7.539062-7.542969-9.75 0-14.960938 3.347656-19.148438 6.039063-3.417969 2.191406-5.671875 3.640625-10.996094 3.640625-5.320312 0-7.578125-1.449219-10.996094-3.640625-4.1875-2.691407-9.394531-6.039063-19.144531-6.039063-9.746093 0-14.957031 3.347656-19.144531 6.039063-3.414062 2.191406-5.671875 3.640625-10.996094 3.640625-5.320312 0-7.574218-1.449219-10.992187-3.640625-4.1875-2.691407-9.394531-6.039063-19.144531-6.039063-9.746094 0-14.957032 3.347656-19.144532 6.039063-3.414062 2.191406-5.671875 3.640625-10.992187 3.640625-5.324219 0-7.582031-1.449219-10.996094-3.640625-4.1875-2.691407-9.398437-6.039063-19.144531-6.039063-9.75 0-14.960938 3.347656-19.148438 6.039063-3.414062 2.191406-5.671875 3.640625-10.992187 3.640625-3.484375 0-5.480469-.675782-6.679688-1.1875-3.828125-1.625-8.257812.15625-9.890625 3.988281-1.632812 3.832031.152344 8.257813 3.984375 9.890625zm0 0"/><path d="m47.589844 251.683594c2.894531 0 4.96875-1.542969 4.96875-4.921875v-26.644531c0-2.316407-1.449219-3.378907-3.910156-3.378907-1.929688 0-2.894532 1.160157-4.4375 3.28125-1.257813 1.738281-2.753907 3.089844-5.695313 3.621094-3.863281.675781-4.683594 1.351563-4.683594 3.8125 0 2.222656 1.15625 3.429687 3.570313 3.429687h5.214844v15.878907c0 3.375 2.074218 4.921875 4.972656 4.921875zm0 0"/><path d="m58.15625 310.914062h-11.484375v-.097656l8.734375-5.5c4.296875-2.703125 6.324219-5.601562 6.324219-9.65625 0-5.355468-3.574219-10.953125-13.851563-10.953125-8.59375 0-13.128906 4.921875-13.128906 9.554688 0 2.753906 1.253906 4.683593 4.730469 4.683593 5.453125 0 2.605469-6.710937 8.109375-6.710937 2.605468 0 4.195312 1.546875 4.195312 3.910156 0 1.980469-.867187 3.332031-3.230468 4.972657l-4.585938 3.183593c-8.878906 6.179688-9.605469 7.722657-9.605469 10.714844 0 2.078125 1.542969 4.007813 4.101563 4.007813h19.691406c2.898438 0 4.105469-1.496094 4.105469-4.054688s-1.207031-4.054688-4.105469-4.054688zm0 0"/><path d="m46.621094 380.375c-5.308594 0-2.699219-5.839844-7.914063-5.839844-2.800781 0-4.441406 1.933594-4.441406 4.632813 0 4.25 4.925781 8.449219 12.644531 8.449219 12.359375 0 14.625-7.191407 14.625-11.585938 0-3.378906-1.6875-6.175781-4.921875-7.1875v-.097656c2.65625-.917969 4.101563-3.332032 4.101563-6.566406 0-5.839844-5.210938-9.507813-12.644532-9.507813-8.398437 0-13.082031 3.523437-13.082031 7.675781 0 2.027344 1.304688 4.296875 4.25 4.296875 1.496094 0 2.363281-.4375 3.378907-1.980469 1.398437-2.171874 2.414062-2.75 4.246093-2.75 2.511719 0 4.488281.820313 4.488281 3.28125 0 2.269532-1.6875 3.234376-3.328124 3.234376-2.269532 0-3.957032.773437-3.957032 3.332031 0 1.640625 1.109375 2.796875 4.34375 3.039062 1.976563.144531 3.183594.722657 3.183594 3.136719 0 3.234375-1.589844 4.4375-4.972656 4.4375zm0 0"/></svg>