<svg xmlns="http://www.w3.org/2000/svg" xmlns:xlink="http://www.w3.org/1999/xlink" viewBox="0 0 63 52.5" version="1.1" x="0px" y="0px"><title>menu-nav-icon@1x</title><desc>Created with Sketch.</desc><g stroke="none" stroke-width="1" fill="none" fill-rule="evenodd"><g transform="translate(-814.000000, -2923.000000)" fill="#000000"><g transform="translate(275.000000, 1935.000000)"><g transform="translate(75.000000, 512.000000)"><g transform="translate(464.000000, 476.000000)"><path d="M0.75,37.5 L62.25,37.5 C62.6642136,37.5 63,37.8357864 63,38.25 L63,41.25 C63,41.6642136 62.6642136,42 62.25,42 L0.75,42 C0.335786438,42 5.07265313e-17,41.6642136 0,41.25 L0,38.25 C-5.07265313e-17,37.8357864 0.335786438,37.5 0.75,37.5 Z M0.75,18.75 L47.25,18.75 C47.6642136,18.75 48,19.0857864 48,19.5 L48,22.5 C48,22.9142136 47.6642136,23.25 47.25,23.25 L0.75,23.25 C0.335786438,23.25 5.07265313e-17,22.9142136 0,22.5 L0,19.5 C-5.07265313e-17,19.0857864 0.335786438,18.75 0.75,18.75 Z M0.75,0 L62.25,0 C62.6642136,-7.6089797e-17 63,0.335786438 63,0.75 L63,3.75 C63,4.16421356 62.6642136,4.5 62.25,4.5 L0.75,4.5 C0.335786438,4.5 5.07265313e-17,4.16421356 0,3.75 L0,0.75 C-5.07265313e-17,0.335786438 0.335786438,-1.45954808e-16 0.75,-2.22044605e-16 Z"/></g></g></g></g></g></svg>