<svg xmlns="http://www.w3.org/2000/svg" width="21" height="24"><path fill="#71bf44" d="M9.987.888C16.13.576 21.184 5.925 20.994 12.487c-.179 6.12-4.943 10.982-10.657 10.89a9.909 9.909 0 0 1-4.512-1.174L.524 23.547c-.29.076-.555-.2-.494-.515l1.114-5.795A11.864 11.864 0 0 1 .001 12.16C-.016 6.164 4.396 1.174 9.987.888zm6.326 17.468c1.539-1.65 2.408-3.898 2.407-6.23 0-2.354-.855-4.565-2.407-6.23-1.553-1.662-3.617-2.58-5.813-2.58-2.176 0-4.274.932-5.813 2.58-1.553 1.666-2.408 3.876-2.408 6.23 0 1.41.3 2.755.894 4l.363.763-.684 3.558 3.251-.826.738.396a7.705 7.705 0 0 0 3.659.917c2.196 0 4.26-.915 5.813-2.578zm-.718-3.79c.487.15.702.759.43 1.219-.398.672-1.029 1.493-1.818 1.697-1.392.362-3.53.008-6.2-2.66-2.31-2.313-2.921-4.237-2.777-5.764.082-.866.756-1.648 1.323-2.161.387-.35.98-.207 1.184.29l.856 2.073a.86.86 0 0 1-.094.826l-.434.603a.839.839 0 0 0-.058.879c.516.964 2.54 2.892 3.502 3.31a.707.707 0 0 0 .805-.183l.497-.543a.722.722 0 0 1 .75-.211z"/></svg>