<?xml version="1.0" standalone="no"?>
<!DOCTYPE svg PUBLIC "-//W3C//DTD SVG 20010904//EN"
 "http://www.w3.org/TR/2001/REC-SVG-20010904/DTD/svg10.dtd">
<svg version="1.0" xmlns="http://www.w3.org/2000/svg"
 width="500.000000pt" height="591.000000pt" viewBox="0 0 500.000000 591.000000"
 preserveAspectRatio="xMidYMid meet">
<metadata>
Created by potrace 1.15, written by Peter Selinger 2001-2017
</metadata>
<g transform="translate(0.000000,591.000000) scale(0.100000,-0.100000)"
fill="#000000" stroke="none">
<path d="M4178 5886 c-21 -8 -68 -32 -105 -54 -60 -34 -1288 -744 -3183 -1837
-322 -185 -605 -354 -630 -374 -85 -71 -166 -198 -205 -321 -17 -51 -18 -144
-16 -1405 1 -794 6 -1365 12 -1386 20 -77 41 -94 344 -270 160 -93 306 -172
325 -175 74 -15 112 4 720 355 327 189 614 355 637 368 36 21 45 22 65 12 13
-6 162 -90 331 -187 169 -96 309 -173 311 -171 3 4 79 135 502 868 l152 264
627 362 c345 198 647 377 671 397 24 20 62 58 85 84 53 64 125 213 140 291 9
48 10 388 7 1395 -4 1319 -5 1333 -25 1379 -11 25 -36 58 -54 71 -31 24 -493
294 -566 332 -38 19 -94 20 -145 2z m-653 -1890 c63 -30 97 -65 132 -141 26
-56 28 -68 28 -190 0 -147 -14 -215 -74 -355 -47 -109 -784 -1388 -817 -1417
-14 -13 -32 -23 -40 -23 -9 0 -183 95 -387 211 -424 240 -452 262 -487 375
-121 392 273 1034 663 1080 66 8 122 -7 184 -49 l49 -33 26 55 c71 152 220
329 349 417 133 91 274 117 374 70z"/>
</g>
</svg>
